<?xml version="1.0" encoding="UTF-8" standalone="no"?>
<!-- Created with Inkscape (http://www.inkscape.org/) -->

<svg
   xmlns:dc="http://purl.org/dc/elements/1.1/"
   xmlns:cc="http://creativecommons.org/ns#"
   xmlns:rdf="http://www.w3.org/1999/02/22-rdf-syntax-ns#"
   xmlns:svg="http://www.w3.org/2000/svg"
   xmlns="http://www.w3.org/2000/svg"
   xmlns:sodipodi="http://sodipodi.sourceforge.net/DTD/sodipodi-0.dtd"
   xmlns:inkscape="http://www.inkscape.org/namespaces/inkscape"
   width="85"
   height="48"
   id="svg3263"
   version="1.1"
   inkscape:version="0.48.5 r10040"
   sodipodi:docname="schema build.svg">
  <defs
     id="defs3265" />
  <sodipodi:namedview
     id="base"
     pagecolor="#ffffff"
     bordercolor="#666666"
     borderopacity="1.0"
     inkscape:pageopacity="0.0"
     inkscape:pageshadow="2"
     inkscape:zoom="8.0000004"
     inkscape:cx="49.255585"
     inkscape:cy="25.429261"
     inkscape:document-units="px"
     inkscape:current-layer="layer1"
     showgrid="true"
     inkscape:window-width="1920"
     inkscape:window-height="1014"
     inkscape:window-x="0"
     inkscape:window-y="27"
     inkscape:window-maximized="1"
     inkscape:snap-bbox="false"
     inkscape:snap-global="false">
    <inkscape:grid
       type="xygrid"
       id="grid3271"
       empspacing="5"
       visible="true"
       enabled="true"
       snapvisiblegridlinesonly="true"
       spacingx="1px"
       spacingy="1px" />
  </sodipodi:namedview>
  <metadata
     id="metadata3268">
    <rdf:RDF>
      <cc:Work
         rdf:about="">
        <dc:format>image/svg+xml</dc:format>
        <dc:type
           rdf:resource="http://purl.org/dc/dcmitype/StillImage" />
        <dc:title />
      </cc:Work>
    </rdf:RDF>
  </metadata>
  <g
     inkscape:label="Layer 1"
     inkscape:groupmode="layer"
     id="layer1"
     transform="translate(0,-1004.3622)">
    <path
       style="fill:#e67e22;fill-opacity:1;stroke:none"
       d="m 72.5,1041.2059 -0.5,0.6563 -9.5,0 0,4 2.5,0 0.5,-0.6563 0.5,0.6563 6,0 0.5,-0.6563 0.5,0.6563 6,0 0.5,-0.6563 0.5,0.6563 2.5,0 0,-4 -9.5,0 z"
       id="rect4789"
       inkscape:connector-curvature="0"
       sodipodi:nodetypes="ccccccccccccccccc" />
    <path
       style="fill:#d35400;fill-opacity:1;stroke:none"
       d="m 62.5,1025.8622 0,4 4.25,0 0.5,-0.6563 0.5,0.6563 9.5,0 0.5,-0.6563 0.5,0.6563 4.25,0 0,-4 z"
       id="rect4378-7"
       inkscape:connector-curvature="0"
       sodipodi:nodetypes="ccccccccccc" />
    <path
       style="fill:#d35400;fill-opacity:1;stroke:none"
       d="m 62.5,1036.8622 0,4 9.5,0 0.5,-0.6563 0.5,0.6563 9.5,0 0,-4 z"
       id="rect4378-9"
       inkscape:connector-curvature="0"
       sodipodi:nodetypes="cccccccc" />
    <path
       style="fill:#d35400;fill-opacity:1;stroke:none"
       d="m 62.5,1018.8622 0,-4 20,0 0,4 -2.5,0 -0.5,-0.6563 -0.5,0.6563 -6,0 -0.5,-0.6563 -0.5,0.6563 -6,0 -0.5,-0.6563 -0.5,0.6563 z"
       id="rect4378"
       inkscape:connector-curvature="0"
       sodipodi:nodetypes="cccccccccccccc" />
    <rect
       style="fill:#8e44ad;fill-opacity:1;stroke:none"
       id="rect4291-6"
       width="10"
       height="5.9999976"
       x="2"
       y="1042.3622" />
    <rect
       style="fill:#8e44ad;fill-opacity:1;stroke:none"
       id="rect4291-8"
       width="10"
       height="5.9999976"
       x="15"
       y="1042.3622" />
    <rect
       style="fill:#8e44ad;fill-opacity:1;stroke:none"
       id="rect4291-5"
       width="10"
       height="5.9999976"
       x="41"
       y="1042.3622" />
    <rect
       style="fill:#8e44ad;fill-opacity:1;stroke:none"
       id="rect4291-7"
       width="10"
       height="5.9999976"
       x="41"
       y="1007.3622" />
    <rect
       style="fill:#c0392b;fill-opacity:1;stroke:none"
       id="rect4291-61"
       width="10"
       height="5.9999976"
       x="28"
       y="1007.3622" />
    <rect
       style="fill:#27ae60;fill-opacity:1;stroke:none"
       id="rect4291-89"
       width="10"
       height="5.9999976"
       x="15"
       y="1007.3622" />
    <rect
       style="fill:#2980b9;fill-opacity:1;stroke:none"
       id="rect4291-2"
       width="10"
       height="5.9999976"
       x="2"
       y="1007.3622" />
    <rect
       style="fill:#8e44ad;fill-opacity:1;stroke:none"
       id="rect4291"
       width="10"
       height="5.9999976"
       x="28"
       y="1042.3622" />
    <rect
       style="fill:#9b59b6;fill-opacity:1;stroke:none"
       id="rect3275-76"
       width="1"
       height="2.9999988"
       x="32.5"
       y="1039.3622" />
    <rect
       style="fill:#2ecc71;fill-opacity:1;stroke:none"
       id="rect3275-7"
       width="1"
       height="2.9999988"
       x="19.5"
       y="1013.3622" />
    <rect
       style="fill:#3498db;fill-opacity:1;stroke:none"
       id="rect3275"
       width="1"
       height="2.9999988"
       x="6.5"
       y="1013.3622" />
    <rect
       style="fill:#e67e22;fill-opacity:1;stroke:none"
       id="rect3275-2-2"
       width="0.99999475"
       height="3"
       x="-1039.3622"
       y="59.5"
       transform="matrix(0,-1,1,0,0,0)" />
    <rect
       style="fill:#e67e22;fill-opacity:1;stroke:none"
       id="rect4169"
       width="3"
       height="0.99999738"
       x="59.5"
       y="1016.3622" />
    <rect
       style="fill:#e67e22;fill-opacity:1;stroke:none"
       id="rect4171"
       width="3"
       height="0.99999738"
       x="59.5"
       y="1027.3622" />
    <rect
       style="fill:#e74c3c;fill-opacity:1;stroke:none"
       id="rect3275-0"
       width="1"
       height="2.9999988"
       x="32.5"
       y="1013.3622" />
    <rect
       style="fill:#9b59b6;fill-opacity:1;stroke:none"
       id="rect3275-4"
       width="1"
       height="2.9999979"
       x="45.5"
       y="1013.3622" />
    <rect
       style="fill:#9b59b6;fill-opacity:1;stroke:none"
       id="rect3275-1"
       width="1"
       height="2.9999988"
       x="6.5"
       y="1039.3622" />
    <rect
       style="fill:#9b59b6;fill-opacity:1;stroke:none"
       id="rect3275-11"
       width="1"
       height="2.9999988"
       x="19.5"
       y="1039.3622" />
    <rect
       style="fill:#9b59b6;fill-opacity:1;stroke:none"
       id="rect3275-2"
       width="1"
       height="2.9999988"
       x="45.5"
       y="1039.3622" />
    <rect
       style="fill:#ecf0f1;fill-opacity:1;stroke:none"
       id="rect3275-8"
       width="1"
       height="9.9999971"
       x="58.5"
       y="1017.3622" />
    <rect
       style="fill:#ecf0f1;fill-opacity:1;stroke:none"
       id="rect3275-45"
       width="1"
       height="9.9999971"
       x="58.5"
       y="1028.3622" />
    <rect
       style="fill:#ecf0f1;fill-opacity:1;stroke:none"
       id="rect4161"
       width="12"
       height="1"
       x="7.5"
       y="1016.3622" />
    <rect
       style="fill:#ecf0f1;fill-opacity:1;stroke:none"
       id="rect4163"
       width="12"
       height="1"
       x="20.5"
       y="1016.3622" />
    <rect
       style="fill:#ecf0f1;fill-opacity:1;stroke:none"
       id="rect4165"
       width="12"
       height="1"
       x="33.5"
       y="1016.3622" />
    <rect
       style="fill:#ecf0f1;fill-opacity:1;stroke:none"
       id="rect4167"
       width="12"
       height="1"
       x="46.5"
       y="1016.3622" />
    <rect
       style="fill:#ecf0f1;fill-opacity:1;stroke:none"
       id="rect4173"
       width="12"
       height="1"
       x="7.5"
       y="1038.3622" />
    <rect
       style="fill:#ecf0f1;fill-opacity:1;stroke:none"
       id="rect4175"
       width="12"
       height="1"
       x="20.5"
       y="1038.3622" />
    <rect
       style="fill:#ecf0f1;fill-opacity:1;stroke:none"
       id="rect4177"
       width="12"
       height="1"
       x="33.5"
       y="1038.3622" />
    <rect
       style="fill:#ecf0f1;fill-opacity:1;stroke:none"
       id="rect4179"
       width="12"
       height="1"
       x="46.5"
       y="1038.3622" />
    <path
       sodipodi:type="arc"
       style="fill:#2980b9;fill-opacity:1;stroke:none"
       id="path3273"
       sodipodi:cx="7.5"
       sodipodi:cy="17.5"
       sodipodi:rx="1.5"
       sodipodi:ry="1.5"
       d="M 9,17.5 C 9,18.328427 8.3284271,19 7.5,19 6.6715729,19 6,18.328427 6,17.5 6,16.671573 6.6715729,16 7.5,16 8.3284271,16 9,16.671573 9,17.5 z"
       transform="translate(-0.5,999.3622)" />
    <path
       transform="translate(12.5,999.3622)"
       sodipodi:type="arc"
       style="fill:#27ae60;fill-opacity:1;stroke:none"
       id="path3273-1"
       sodipodi:cx="7.5"
       sodipodi:cy="17.5"
       sodipodi:rx="1.5"
       sodipodi:ry="1.5"
       d="M 9,17.5 C 9,18.328427 8.3284271,19 7.5,19 6.6715729,19 6,18.328427 6,17.5 6,16.671573 6.6715729,16 7.5,16 8.3284271,16 9,16.671573 9,17.5 z" />
    <path
       transform="translate(25.5,999.3622)"
       sodipodi:type="arc"
       style="fill:#c0392b;fill-opacity:1;stroke:none"
       id="path3273-4"
       sodipodi:cx="7.5"
       sodipodi:cy="17.5"
       sodipodi:rx="1.5"
       sodipodi:ry="1.5"
       d="M 9,17.5 C 9,18.328427 8.3284271,19 7.5,19 6.6715729,19 6,18.328427 6,17.5 6,16.671573 6.6715729,16 7.5,16 8.3284271,16 9,16.671573 9,17.5 z" />
    <path
       transform="translate(38.5,999.3622)"
       sodipodi:type="arc"
       style="fill:#8e44ad;fill-opacity:1;stroke:none"
       id="path3273-9"
       sodipodi:cx="7.5"
       sodipodi:cy="17.5"
       sodipodi:rx="1.5"
       sodipodi:ry="1.5"
       d="M 9,17.5 C 9,18.328427 8.3284271,19 7.5,19 6.6715729,19 6,18.328427 6,17.5 6,16.671573 6.6715729,16 7.5,16 8.3284271,16 9,16.671573 9,17.5 z" />
    <path
       transform="translate(51.5,999.3622)"
       sodipodi:type="arc"
       style="fill:#d35400;fill-opacity:1;stroke:none"
       id="path3273-8"
       sodipodi:cx="7.5"
       sodipodi:cy="17.5"
       sodipodi:rx="1.5"
       sodipodi:ry="1.5"
       d="M 9,17.5 C 9,18.328427 8.3284271,19 7.5,19 6.6715729,19 6,18.328427 6,17.5 6,16.671573 6.6715729,16 7.5,16 8.3284271,16 9,16.671573 9,17.5 z" />
    <path
       transform="translate(51.5,1010.3622)"
       sodipodi:type="arc"
       style="fill:#d35400;fill-opacity:1;stroke:none"
       id="path3273-2"
       sodipodi:cx="7.5"
       sodipodi:cy="17.5"
       sodipodi:rx="1.5"
       sodipodi:ry="1.5"
       d="M 9,17.5 C 9,18.328427 8.3284271,19 7.5,19 6.6715729,19 6,18.328427 6,17.5 6,16.671573 6.6715729,16 7.5,16 8.3284271,16 9,16.671573 9,17.5 z" />
    <path
       transform="translate(-0.5,1021.3622)"
       sodipodi:type="arc"
       style="fill:#8e44ad;fill-opacity:1;stroke:none"
       id="path3273-5"
       sodipodi:cx="7.5"
       sodipodi:cy="17.5"
       sodipodi:rx="1.5"
       sodipodi:ry="1.5"
       d="M 9,17.5 C 9,18.328427 8.3284271,19 7.5,19 6.6715729,19 6,18.328427 6,17.5 6,16.671573 6.6715729,16 7.5,16 8.3284271,16 9,16.671573 9,17.5 z" />
    <path
       transform="translate(12.5,1021.3622)"
       sodipodi:type="arc"
       style="fill:#8e44ad;fill-opacity:1;stroke:none"
       id="path3273-7"
       sodipodi:cx="7.5"
       sodipodi:cy="17.5"
       sodipodi:rx="1.5"
       sodipodi:ry="1.5"
       d="M 9,17.5 C 9,18.328427 8.3284271,19 7.5,19 6.6715729,19 6,18.328427 6,17.5 6,16.671573 6.6715729,16 7.5,16 8.3284271,16 9,16.671573 9,17.5 z" />
    <path
       transform="translate(25.5,1021.3622)"
       sodipodi:type="arc"
       style="fill:#8e44ad;fill-opacity:1;stroke:none"
       id="path3273-52"
       sodipodi:cx="7.5"
       sodipodi:cy="17.5"
       sodipodi:rx="1.5"
       sodipodi:ry="1.5"
       d="M 9,17.5 C 9,18.328427 8.3284271,19 7.5,19 6.6715729,19 6,18.328427 6,17.5 6,16.671573 6.6715729,16 7.5,16 8.3284271,16 9,16.671573 9,17.5 z" />
    <path
       transform="translate(38.5,1021.3622)"
       sodipodi:type="arc"
       style="fill:#8e44ad;fill-opacity:1;stroke:none"
       id="path3273-14"
       sodipodi:cx="7.5"
       sodipodi:cy="17.5"
       sodipodi:rx="1.5"
       sodipodi:ry="1.5"
       d="M 9,17.5 C 9,18.328427 8.3284271,19 7.5,19 6.6715729,19 6,18.328427 6,17.5 6,16.671573 6.6715729,16 7.5,16 8.3284271,16 9,16.671573 9,17.5 z" />
    <path
       transform="translate(51.5,1021.3622)"
       sodipodi:type="arc"
       style="fill:#d35400;fill-opacity:1;stroke:none"
       id="path3273-14-3"
       sodipodi:cx="7.5"
       sodipodi:cy="17.5"
       sodipodi:rx="1.5"
       sodipodi:ry="1.5"
       d="M 9,17.5 C 9,18.328427 8.3284271,19 7.5,19 6.6715729,19 6,18.328427 6,17.5 6,16.671573 6.6715729,16 7.5,16 8.3284271,16 9,16.671573 9,17.5 z" />
    <text
       xml:space="preserve"
       style="font-size:1.70000005px;font-style:normal;font-weight:normal;line-height:125%;letter-spacing:0px;word-spacing:0px;fill:#ffffff;fill-opacity:1;stroke:none;font-family:Sans"
       x="6.4442625"
       y="1017.4819"
       id="text4181"
       sodipodi:linespacing="125%"><tspan
         sodipodi:role="line"
         id="tspan4183"
         x="6.4442625"
         y="1017.4819">1</tspan></text>
    <text
       xml:space="preserve"
       style="font-size:1.70000005px;font-style:normal;font-weight:normal;line-height:125%;letter-spacing:0px;word-spacing:0px;fill:#ffffff;fill-opacity:1;stroke:none;font-family:Sans"
       x="19.482031"
       y="1017.493"
       id="text4185"
       sodipodi:linespacing="125%"><tspan
         sodipodi:role="line"
         id="tspan4187"
         x="19.482031"
         y="1017.493">2</tspan></text>
    <text
       xml:space="preserve"
       style="font-size:1.70000005px;font-style:normal;font-weight:normal;line-height:125%;letter-spacing:0px;word-spacing:0px;fill:#ffffff;fill-opacity:1;stroke:none;font-family:Sans"
       x="32.462524"
       y="1017.481"
       id="text4189"
       sodipodi:linespacing="125%"><tspan
         sodipodi:role="line"
         id="tspan4191"
         x="32.462524"
         y="1017.481">3</tspan></text>
    <text
       xml:space="preserve"
       style="font-size:1.70000005px;font-style:normal;font-weight:normal;line-height:125%;letter-spacing:0px;word-spacing:0px;fill:#ffffff;fill-opacity:1;stroke:none;font-family:Sans"
       x="45.465431"
       y="1017.4819"
       id="text4193"
       sodipodi:linespacing="125%"><tspan
         sodipodi:role="line"
         id="tspan4195"
         x="45.465431"
         y="1017.4819">4</tspan></text>
    <text
       xml:space="preserve"
       style="font-size:1.70000005px;font-style:normal;font-weight:normal;line-height:125%;letter-spacing:0px;word-spacing:0px;fill:#ffffff;fill-opacity:1;stroke:none;font-family:Sans"
       x="58.467918"
       y="1017.4698"
       id="text4197"
       sodipodi:linespacing="125%"><tspan
         sodipodi:role="line"
         id="tspan4199"
         x="58.467918"
         y="1017.4698">5</tspan></text>
    <text
       xml:space="preserve"
       style="font-size:1.70000005px;font-style:normal;font-weight:normal;line-height:125%;letter-spacing:0px;word-spacing:0px;fill:#ffffff;fill-opacity:1;stroke:none;font-family:Sans"
       x="58.453392"
       y="1028.4811"
       id="text4201"
       sodipodi:linespacing="125%"><tspan
         sodipodi:role="line"
         id="tspan4203"
         x="58.453392"
         y="1028.4811">6</tspan></text>
    <text
       xml:space="preserve"
       style="font-size:1.70000005px;font-style:normal;font-weight:normal;line-height:125%;letter-spacing:0px;word-spacing:0px;fill:#ffffff;fill-opacity:1;stroke:none;font-family:Sans"
       x="58.462109"
       y="1039.4818"
       id="text4205"
       sodipodi:linespacing="125%"><tspan
         sodipodi:role="line"
         id="tspan4207"
         x="58.462109"
         y="1039.4818">7</tspan></text>
    <text
       xml:space="preserve"
       style="font-size:1.70000005px;font-style:normal;font-weight:normal;line-height:125%;letter-spacing:0px;word-spacing:0px;fill:#ffffff;fill-opacity:1;stroke:none;font-family:Sans"
       x="45.459618"
       y="1039.4811"
       id="text4209"
       sodipodi:linespacing="125%"><tspan
         sodipodi:role="line"
         id="tspan4211"
         x="45.459618"
         y="1039.4811">8</tspan></text>
    <text
       xml:space="preserve"
       style="font-size:1.70000005px;font-style:normal;font-weight:normal;line-height:125%;letter-spacing:0px;word-spacing:0px;fill:#ffffff;fill-opacity:1;stroke:none;font-family:Sans"
       x="32.465431"
       y="1039.4811"
       id="text4213"
       sodipodi:linespacing="125%"><tspan
         sodipodi:role="line"
         id="tspan4215"
         x="32.465431"
         y="1039.4811">9</tspan></text>
    <text
       xml:space="preserve"
       style="font-size:1.70000005px;font-style:normal;font-weight:normal;line-height:125%;letter-spacing:0px;word-spacing:0px;fill:#ffffff;fill-opacity:1;stroke:none;font-family:Sans"
       x="18.881054"
       y="1039.4811"
       id="text4217"
       sodipodi:linespacing="125%"><tspan
         sodipodi:role="line"
         id="tspan4219"
         x="18.881054"
         y="1039.4811">10</tspan></text>
    <text
       xml:space="preserve"
       style="font-size:1.70000005px;font-style:normal;font-weight:normal;line-height:125%;letter-spacing:0px;word-spacing:0px;fill:#ffffff;fill-opacity:1;stroke:none;font-family:Sans"
       x="5.9030519"
       y="1039.4818"
       id="text4221"
       sodipodi:linespacing="125%"><tspan
         sodipodi:role="line"
         id="tspan4223"
         x="5.9030519"
         y="1039.4818">11</tspan></text>
    <text
       xml:space="preserve"
       style="font-size:1.4000001px;font-style:normal;font-weight:normal;text-align:center;line-height:125%;letter-spacing:0px;word-spacing:0px;text-anchor:middle;fill:#ffffff;fill-opacity:1;stroke:none;font-family:Sans"
       x="7.024951"
       y="1009.8734"
       id="text4225"
       sodipodi:linespacing="125%"><tspan
         sodipodi:role="line"
         id="tspan4227"
         x="7.2478027"
         y="1009.8734">Load </tspan><tspan
         sodipodi:role="line"
         x="7.024951"
         y="1011.6234"
         id="tspan4279">config</tspan></text>
    <text
       xml:space="preserve"
       style="font-size:1.4000001px;font-style:normal;font-weight:normal;text-align:center;line-height:125%;letter-spacing:0px;word-spacing:0px;text-anchor:middle;fill:#ffffff;fill-opacity:1;stroke:none;font-family:Sans"
       x="19.995899"
       y="1009.8734"
       id="text4229"
       sodipodi:linespacing="125%"><tspan
         sodipodi:role="line"
         id="tspan4231"
         x="20.21875"
         y="1009.8734">Check </tspan><tspan
         sodipodi:role="line"
         x="19.995899"
         y="1011.6234"
         id="tspan4281">dependancies</tspan></text>
    <text
       xml:space="preserve"
       style="font-size:1.4000001px;font-style:normal;font-weight:normal;text-align:center;line-height:125%;letter-spacing:0px;word-spacing:0px;text-anchor:middle;fill:#ffffff;fill-opacity:1;stroke:none;font-family:Sans"
       x="33.041359"
       y="1010.0091"
       id="text4233"
       sodipodi:linespacing="125%"><tspan
         sodipodi:role="line"
         id="tspan4235"
         x="33.26421"
         y="1010.0091">build </tspan><tspan
         sodipodi:role="line"
         x="33.041359"
         y="1011.7591"
         id="tspan4283">toolchain</tspan></text>
    <text
       xml:space="preserve"
       style="font-size:1.4000001px;font-style:normal;font-weight:normal;text-align:center;line-height:125%;letter-spacing:0px;word-spacing:0px;text-anchor:middle;fill:#ffffff;fill-opacity:1;stroke:none;font-family:Sans"
       x="45.953514"
       y="1009.8331"
       id="text4237"
       sodipodi:linespacing="125%"><tspan
         sodipodi:role="line"
         id="tspan4239"
         x="46.176365"
         y="1009.8331">create </tspan><tspan
         sodipodi:role="line"
         x="45.953514"
         y="1011.5831"
         id="tspan4285">baselayout</tspan></text>
    <text
       xml:space="preserve"
       style="font-size:1.4000001px;font-style:normal;font-weight:normal;line-height:125%;letter-spacing:0px;word-spacing:0px;fill:#ffffff;fill-opacity:1;stroke:none;font-family:Sans"
       x="62.880466"
       y="1017.2484"
       id="text4241"
       sodipodi:linespacing="125%"><tspan
         sodipodi:role="line"
         id="tspan4243"
         x="62.880466"
         y="1017.2484">install system basis + deps</tspan></text>
    <text
       xml:space="preserve"
       style="font-size:1.4000001px;font-style:normal;font-weight:normal;line-height:125%;letter-spacing:0px;word-spacing:0px;fill:#ffffff;fill-opacity:1;stroke:none;font-family:Sans"
       x="62.488083"
       y="1028.2484"
       id="text4245"
       sodipodi:linespacing="125%"><tspan
         sodipodi:role="line"
         id="tspan4247"
         x="62.488083"
         y="1028.2484">install system extras + deps</tspan></text>
    <text
       xml:space="preserve"
       style="font-size:1.4000001px;font-style:normal;font-weight:normal;line-height:125%;letter-spacing:0px;word-spacing:0px;fill:#ffffff;fill-opacity:1;stroke:none;font-family:Sans"
       x="65.834961"
       y="1039.2484"
       id="text4249"
       sodipodi:linespacing="125%"><tspan
         sodipodi:role="line"
         id="tspan4251"
         x="65.834961"
         y="1039.2484">install OEM + deps</tspan></text>
    <text
       xml:space="preserve"
       style="font-size:1.4000001px;font-style:normal;font-weight:normal;text-align:center;line-height:125%;letter-spacing:0px;word-spacing:0px;text-anchor:middle;fill:#ffffff;fill-opacity:1;stroke:none;font-family:Sans"
       x="45.996582"
       y="1044.8331"
       id="text4253"
       sodipodi:linespacing="125%"><tspan
         sodipodi:role="line"
         id="tspan4255"
         x="46.219433"
         y="1044.8331">create </tspan><tspan
         sodipodi:role="line"
         x="45.996582"
         y="1046.5831"
         id="tspan4277">squashfs</tspan></text>
    <text
       xml:space="preserve"
       style="font-size:1.4000001px;font-style:normal;font-weight:normal;text-align:center;line-height:125%;letter-spacing:0px;word-spacing:0px;text-anchor:middle;fill:#ffffff;fill-opacity:1;stroke:none;font-family:Sans"
       x="32.981884"
       y="1043.9984"
       id="text4257"
       sodipodi:linespacing="125%"><tspan
         sodipodi:role="line"
         id="tspan4259"
         x="32.981884"
         y="1043.9984">cp kernel</tspan><tspan
         sodipodi:role="line"
         x="33.204735"
         y="1045.7484"
         id="tspan4269">cp squashfs </tspan><tspan
         sodipodi:role="line"
         x="32.981884"
         y="1047.4984"
         id="tspan4271">to target dir</tspan></text>
    <text
       xml:space="preserve"
       style="font-size:1.4000001px;font-style:normal;font-weight:normal;text-align:center;line-height:125%;letter-spacing:0px;word-spacing:0px;text-anchor:middle;fill:#ffffff;fill-opacity:1;stroke:none;font-family:Sans"
       x="19.970947"
       y="1044.9688"
       id="text4261"
       sodipodi:linespacing="125%"><tspan
         sodipodi:role="line"
         id="tspan4263"
         x="20.193798"
         y="1044.9688">create </tspan><tspan
         sodipodi:role="line"
         x="19.970947"
         y="1046.7188"
         id="tspan4273">md5sums</tspan></text>
    <text
       xml:space="preserve"
       style="font-size:1.4000001px;font-style:normal;font-weight:normal;text-align:center;line-height:125%;letter-spacing:0px;word-spacing:0px;text-anchor:middle;fill:#ffffff;fill-opacity:1;stroke:none;font-family:Sans"
       x="6.9962401"
       y="1044.9688"
       id="text4265"
       sodipodi:linespacing="125%"><tspan
         sodipodi:role="line"
         id="tspan4267"
         x="7.2190919"
         y="1044.9688">create </tspan><tspan
         sodipodi:role="line"
         x="6.9962401"
         y="1046.7188"
         id="tspan4275">tarball</tspan></text>
    <text
       xml:space="preserve"
       style="font-size:1.4000001px;font-style:normal;font-weight:normal;line-height:125%;letter-spacing:0px;word-spacing:0px;fill:#ffffff;fill-opacity:1;stroke:none;font-family:Sans"
       x="70.447166"
       y="1044.3745"
       id="text4249-5"
       sodipodi:linespacing="125%"><tspan
         sodipodi:role="line"
         id="tspan4251-4"
         x="70.447166"
         y="1044.3745">Lakka</tspan></text>
    <path
       style="fill:#f39c12;fill-opacity:1;stroke:none"
       d="m 65.5,1046.2059 -0.5,0.6563 -2.5,0 0,3 6,0 0,-3 -2.5,0 -0.5,-0.6563 z"
       id="rect4466"
       inkscape:connector-curvature="0" />
    <path
       style="fill:#f39c12;fill-opacity:1;stroke:none"
       d="m 72.5,1046.2059 -0.5,0.6563 -2.5,0 0,3 6,0 0,-3 -2.5,0 -0.5,-0.6563 z"
       id="rect4468"
       inkscape:connector-curvature="0" />
    <path
       style="fill:#f39c12;fill-opacity:1;stroke:none"
       d="m 79.5,1046.2059 -0.5,0.6563 -2.5,0 0,3 6,0 0,-3 -2.5,0 -0.5,-0.6563 z"
       id="rect4470"
       inkscape:connector-curvature="0" />
    <text
       xml:space="preserve"
       style="font-size:1.3000001px;font-style:normal;font-weight:normal;line-height:125%;letter-spacing:0px;word-spacing:0px;fill:#ffffff;fill-opacity:1;stroke:none;font-family:Sans"
       x="77.256226"
       y="1048.8904"
       id="text4249-5-2"
       sodipodi:linespacing="125%"><tspan
         sodipodi:role="line"
         id="tspan4251-4-3"
         x="77.256226"
         y="1048.8904">samba</tspan></text>
    <text
       xml:space="preserve"
       style="font-size:1.3000001px;font-style:normal;font-weight:normal;line-height:125%;letter-spacing:0px;word-spacing:0px;fill:#ffffff;fill-opacity:1;stroke:none;font-family:Sans"
       x="69.640625"
       y="1048.8994"
       id="text4249-5-34"
       sodipodi:linespacing="125%"><tspan
         sodipodi:role="line"
         id="tspan4251-4-11"
         x="69.640625"
         y="1048.8994">libretro-*</tspan></text>
    <text
       xml:space="preserve"
       style="font-size:1.3000001px;font-style:normal;font-weight:normal;line-height:125%;letter-spacing:0px;word-spacing:0px;fill:#ffffff;fill-opacity:1;stroke:none;font-family:Sans"
       x="62.498173"
       y="1048.8904"
       id="text4249-5-38"
       sodipodi:linespacing="125%"><tspan
         sodipodi:role="line"
         id="tspan4251-4-7"
         x="62.498173"
         y="1048.8904">retroarch</tspan></text>
    <path
       style="fill:#e67e22;fill-opacity:1;stroke:none"
       d="m 77.75,1030.2059 -0.5,0.6563 -4.25,0 0,3 9.5,0 0,-3 -4.25,0 z"
       id="rect4470-4"
       inkscape:connector-curvature="0"
       sodipodi:nodetypes="cccccccc" />
    <path
       style="fill:#e67e22;fill-opacity:1;stroke:none"
       d="m 67.25,1030.2059 -0.5,0.6563 -4.25,0 0,3 9.5,0 0,-3 -4.25,0 z"
       id="rect4470-4-2"
       inkscape:connector-curvature="0"
       sodipodi:nodetypes="cccccccc" />
    <text
       xml:space="preserve"
       style="font-size:1.4000001px;font-style:normal;font-weight:normal;line-height:125%;letter-spacing:0px;word-spacing:0px;fill:#ffffff;fill-opacity:1;stroke:none;font-family:Sans"
       x="64.34404"
       y="1032.8904"
       id="text4249-5-3-7"
       sodipodi:linespacing="125%"><tspan
         sodipodi:role="line"
         id="tspan4251-4-1-7"
         x="64.34404"
         y="1032.8904">network</tspan></text>
    <text
       xml:space="preserve"
       style="font-size:1.4000001px;font-style:normal;font-weight:normal;line-height:125%;letter-spacing:0px;word-spacing:0px;fill:#ffffff;fill-opacity:1;stroke:none;font-family:Sans"
       x="75.649658"
       y="1032.8904"
       id="text4249-5-3-9"
       sodipodi:linespacing="125%"><tspan
         sodipodi:role="line"
         id="tspan4251-4-1-3"
         x="75.649658"
         y="1032.8904">sound</tspan></text>
    <text
       xml:space="preserve"
       style="font-size:1px;font-style:normal;font-weight:normal;line-height:125%;letter-spacing:0px;word-spacing:0px;fill:#000000;fill-opacity:1;stroke:none;font-family:Sans"
       x="65.625"
       y="13.1875"
       id="text4908"
       sodipodi:linespacing="125%"
       transform="translate(0,977.36218)"><tspan
         sodipodi:role="line"
         id="tspan4910"
         x="65.625"
         y="13.1875" /></text>
    <path
       inkscape:connector-curvature="0"
       style="fill:#e67e22;fill-opacity:1;stroke:none"
       d="m 65.5,1019.206 -0.5,0.6562 -2.5,0 0,3 6,0 0,-3 -2.5,0 z"
       id="rect4470-4-2-5"
       sodipodi:nodetypes="cccccccc" />
    <path
       inkscape:connector-curvature="0"
       style="fill:#e67e22;fill-opacity:1;stroke:none"
       d="m 72.5,1019.206 -0.5,0.6562 -2.5,0 0,3 6,0 0,-3 -2.5,0 z"
       id="rect4470-4-2-5-9"
       sodipodi:nodetypes="cccccccc" />
    <path
       inkscape:connector-curvature="0"
       style="fill:#e67e22;fill-opacity:1;stroke:none"
       d="m 79.5,1019.206 -0.5,0.6562 -2.5,0 0,3 6,0 0,-3 -2.5,0 z"
       id="rect4470-4-2-5-0"
       sodipodi:nodetypes="cccccccc" />
    <text
       xml:space="preserve"
       style="font-size:1.4000001px;font-style:normal;font-weight:normal;line-height:125%;letter-spacing:0px;word-spacing:0px;fill:#ffffff;fill-opacity:1;stroke:none;font-family:Sans"
       x="64.259964"
       y="1021.8903"
       id="text4249-5-3-7-6"
       sodipodi:linespacing="125%"><tspan
         sodipodi:role="line"
         id="tspan4251-4-1-7-1"
         x="64.259964"
         y="1021.8903">libc</tspan></text>
    <text
       xml:space="preserve"
       style="font-size:1.4000001px;font-style:normal;font-weight:normal;line-height:125%;letter-spacing:0px;word-spacing:0px;fill:#ffffff;fill-opacity:1;stroke:none;font-family:Sans"
       x="71.381279"
       y="1021.7766"
       id="text4249-5-3-7-3"
       sodipodi:linespacing="125%"><tspan
         sodipodi:role="line"
         id="tspan4251-4-1-7-8"
         x="71.381279"
         y="1021.7766">gcc</tspan></text>
    <text
       xml:space="preserve"
       style="font-size:1.4000001px;font-style:normal;font-weight:normal;line-height:125%;letter-spacing:0px;word-spacing:0px;fill:#ffffff;fill-opacity:1;stroke:none;font-family:Sans"
       x="77.765724"
       y="1021.8903"
       id="text4249-5-3-7-9"
       sodipodi:linespacing="125%"><tspan
         sodipodi:role="line"
         id="tspan4251-4-1-7-3"
         x="77.765724"
         y="1021.8903">linux</tspan></text>
  </g>
</svg>
