<?xml version="1.0" encoding="UTF-8" standalone="no"?>
<!-- Created with Inkscape (http://www.inkscape.org/) -->

<svg
   xmlns:dc="http://purl.org/dc/elements/1.1/"
   xmlns:cc="http://creativecommons.org/ns#"
   xmlns:rdf="http://www.w3.org/1999/02/22-rdf-syntax-ns#"
   xmlns:svg="http://www.w3.org/2000/svg"
   xmlns="http://www.w3.org/2000/svg"
   xmlns:sodipodi="http://sodipodi.sourceforge.net/DTD/sodipodi-0.dtd"
   xmlns:inkscape="http://www.inkscape.org/namespaces/inkscape"
   id="svg2"
   version="1.1"
   inkscape:version="0.48.4 r9939"
   width="96"
   height="22"
   sodipodi:docname="form_background.svg"
   inkscape:export-filename="/run/media/niouby/GLaDOS/Users/Niouby/Desktop/form_background.png"
   inkscape:export-xdpi="1800"
   inkscape:export-ydpi="1800">
  <metadata
     id="metadata8">
    <rdf:RDF>
      <cc:Work
         rdf:about="">
        <dc:format>image/svg+xml</dc:format>
        <dc:type
           rdf:resource="http://purl.org/dc/dcmitype/StillImage" />
        <dc:title></dc:title>
      </cc:Work>
    </rdf:RDF>
  </metadata>
  <defs
     id="defs6" />
  <sodipodi:namedview
     pagecolor="#3498db"
     bordercolor="#666666"
     borderopacity="1"
     objecttolerance="10"
     gridtolerance="10"
     guidetolerance="10"
     inkscape:pageopacity="0"
     inkscape:pageshadow="2"
     inkscape:window-width="1920"
     inkscape:window-height="1014"
     id="namedview4"
     showgrid="true"
     inkscape:snap-bbox="true"
     inkscape:zoom="13.166667"
     inkscape:cx="45.807903"
     inkscape:cy="17.108542"
     inkscape:window-x="0"
     inkscape:window-y="27"
     inkscape:window-maximized="1"
     inkscape:current-layer="svg2">
    <inkscape:grid
       type="xygrid"
       id="grid2989"
       empspacing="5"
       visible="true"
       enabled="true"
       snapvisiblegridlinesonly="true" />
  </sodipodi:namedview>
  <path
     sodipodi:type="arc"
     style="fill:#ecf0f1;fill-opacity:1;stroke:none"
     id="path2991"
     sodipodi:cx="2.5"
     sodipodi:cy="51.5"
     sodipodi:rx="12.5"
     sodipodi:ry="12.5"
     d="m 15,51.5 a 12.5,12.5 0 1 1 -25,0 12.5,12.5 0 1 1 25,0 z"
     transform="matrix(1.2,0,0,1.2,-3,-40.8)" />
  <path
     sodipodi:type="arc"
     style="fill:#ecf0f1;fill-opacity:1;stroke:none"
     id="path2991-2"
     sodipodi:cx="2.5"
     sodipodi:cy="51.5"
     sodipodi:rx="12.5"
     sodipodi:ry="12.5"
     d="m 15,51.5 a 12.5,12.5 0 1 1 -25,0 12.5,12.5 0 1 1 25,0 z"
     transform="matrix(1.2,0,0,1.2,93,-40.8)" />
  <path
     sodipodi:type="arc"
     style="fill:#ecf0f1;fill-opacity:1;stroke:none"
     id="path2991-2-9"
     sodipodi:cx="2.5"
     sodipodi:cy="51.5"
     sodipodi:rx="12.5"
     sodipodi:ry="12.5"
     d="m 15,51.5 a 12.5,12.5 0 1 1 -25,0 12.5,12.5 0 1 1 25,0 z"
     transform="matrix(0.88,0,0,0.88,76.8,-31.32)" />
  <path
     sodipodi:type="arc"
     style="fill:#ecf0f1;fill-opacity:1;stroke:none"
     id="path2991-2-0"
     sodipodi:cx="2.5"
     sodipodi:cy="51.5"
     sodipodi:rx="12.5"
     sodipodi:ry="12.5"
     d="m 15,51.5 a 12.5,12.5 0 1 1 -25,0 12.5,12.5 0 1 1 25,0 z"
     transform="matrix(1.08,0,0,1.08,58.8,-41.12)" />
  <path
     sodipodi:type="arc"
     style="fill:#ecf0f1;fill-opacity:1;stroke:none"
     id="path2991-2-8"
     sodipodi:cx="2.5"
     sodipodi:cy="51.5"
     sodipodi:rx="12.5"
     sodipodi:ry="12.5"
     d="m 15,51.5 a 12.5,12.5 0 1 1 -25,0 12.5,12.5 0 1 1 25,0 z"
     transform="matrix(1.08,0,0,1.08,40.8,-36.12)" />
  <path
     sodipodi:type="arc"
     style="fill:#ecf0f1;fill-opacity:1;stroke:none"
     id="path2991-2-6"
     sodipodi:cx="2.5"
     sodipodi:cy="51.5"
     sodipodi:rx="12.5"
     sodipodi:ry="12.5"
     d="m 15,51.5 a 12.5,12.5 0 1 1 -25,0 12.5,12.5 0 1 1 25,0 z"
     transform="matrix(0.96,0,0,0.96,13.6,-29.44)" />
  <path
     sodipodi:type="arc"
     style="fill:#ecf0f1;fill-opacity:1;stroke:none"
     id="path2991-2-94"
     sodipodi:cx="2.5"
     sodipodi:cy="51.5"
     sodipodi:rx="12.5"
     sodipodi:ry="12.5"
     d="m 15,51.5 a 12.5,12.5 0 1 1 -25,0 12.5,12.5 0 1 1 25,0 z"
     transform="matrix(1.2,0,0,1.2,28,-34.8)" />
</svg>
