<?xml version="1.0" encoding="UTF-8" standalone="no"?>
<!-- Created with Inkscape (http://www.inkscape.org/) -->

<svg
   xmlns:dc="http://purl.org/dc/elements/1.1/"
   xmlns:cc="http://creativecommons.org/ns#"
   xmlns:rdf="http://www.w3.org/1999/02/22-rdf-syntax-ns#"
   xmlns:svg="http://www.w3.org/2000/svg"
   xmlns="http://www.w3.org/2000/svg"
   xmlns:sodipodi="http://sodipodi.sourceforge.net/DTD/sodipodi-0.dtd"
   xmlns:inkscape="http://www.inkscape.org/namespaces/inkscape"
   width="80"
   height="60"
   id="svg2"
   version="1.1"
   inkscape:version="0.48.4 r9939"
   sodipodi:docname="form_paperplane.svg"
   inkscape:export-filename="/run/media/niouby/GLaDOS/Users/Niouby/Desktop/form_paperplane2.png"
   inkscape:export-xdpi="843.75"
   inkscape:export-ydpi="843.75">
  <defs
     id="defs4">
    <inkscape:path-effect
       effect="spiro"
       id="path-effect4016"
       is_visible="true" />
    <inkscape:path-effect
       effect="spiro"
       id="path-effect3982"
       is_visible="true" />
    <inkscape:path-effect
       effect="spiro"
       id="path-effect4756"
       is_visible="true" />
    <inkscape:path-effect
       effect="spiro"
       id="path-effect4744"
       is_visible="true" />
    <inkscape:path-effect
       effect="spiro"
       id="path-effect4740"
       is_visible="true" />
    <inkscape:path-effect
       effect="spiro"
       id="path-effect4736"
       is_visible="true" />
    <inkscape:path-effect
       effect="spiro"
       id="path-effect4732"
       is_visible="true" />
    <inkscape:path-effect
       effect="spiro"
       id="path-effect4724"
       is_visible="true" />
    <inkscape:path-effect
       effect="spiro"
       id="path-effect4716"
       is_visible="true" />
    <inkscape:path-effect
       effect="spiro"
       id="path-effect4712"
       is_visible="true" />
    <inkscape:path-effect
       effect="spiro"
       id="path-effect4501"
       is_visible="true" />
    <inkscape:path-effect
       effect="spiro"
       id="path-effect4493"
       is_visible="true" />
    <inkscape:path-effect
       effect="spiro"
       id="path-effect4489"
       is_visible="true" />
    <inkscape:path-effect
       effect="spiro"
       id="path-effect4485"
       is_visible="true" />
    <inkscape:path-effect
       effect="spiro"
       id="path-effect4481"
       is_visible="true" />
    <inkscape:path-effect
       effect="spiro"
       id="path-effect4501-8"
       is_visible="true" />
    <inkscape:path-effect
       effect="spiro"
       id="path-effect4501-2"
       is_visible="true" />
    <inkscape:path-effect
       effect="spiro"
       id="path-effect4501-1"
       is_visible="true" />
    <inkscape:path-effect
       effect="spiro"
       id="path-effect4501-8-5"
       is_visible="true" />
    <inkscape:path-effect
       effect="spiro"
       id="path-effect4501-8-5-0"
       is_visible="true" />
    <inkscape:path-effect
       effect="spiro"
       id="path-effect4501-1-9"
       is_visible="true" />
    <inkscape:path-effect
       effect="spiro"
       id="path-effect4501-2-7"
       is_visible="true" />
    <inkscape:path-effect
       effect="spiro"
       id="path-effect4501-8-3"
       is_visible="true" />
    <inkscape:path-effect
       effect="spiro"
       id="path-effect3982-1"
       is_visible="true" />
    <inkscape:path-effect
       effect="spiro"
       id="path-effect3982-2"
       is_visible="true" />
    <inkscape:path-effect
       effect="spiro"
       id="path-effect4016-2"
       is_visible="true" />
    <inkscape:path-effect
       effect="spiro"
       id="path-effect4016-1"
       is_visible="true" />
  </defs>
  <sodipodi:namedview
     id="base"
     pagecolor="#3498db"
     bordercolor="#666666"
     borderopacity="1.0"
     inkscape:pageopacity="0"
     inkscape:pageshadow="2"
     inkscape:zoom="45.254834"
     inkscape:cx="53.189894"
     inkscape:cy="31.584941"
     inkscape:document-units="px"
     inkscape:current-layer="layer4"
     showgrid="true"
     inkscape:window-width="1920"
     inkscape:window-height="1014"
     inkscape:window-x="0"
     inkscape:window-y="27"
     inkscape:window-maximized="1"
     inkscape:snap-bbox="true"
     showguides="true"
     inkscape:guide-bbox="true"
     inkscape:snap-global="false">
    <inkscape:grid
       type="xygrid"
       id="grid3052"
       empspacing="5"
       visible="true"
       enabled="true"
       snapvisiblegridlinesonly="true" />
  </sodipodi:namedview>
  <metadata
     id="metadata7">
    <rdf:RDF>
      <cc:Work
         rdf:about="">
        <dc:format>image/svg+xml</dc:format>
        <dc:type
           rdf:resource="http://purl.org/dc/dcmitype/StillImage" />
        <dc:title></dc:title>
      </cc:Work>
    </rdf:RDF>
  </metadata>
  <g
     inkscape:label="Layer 1"
     inkscape:groupmode="layer"
     id="layer1"
     transform="translate(0,-992.3622)"
     style="opacity:0.30973451;display:none"
     sodipodi:insensitive="true">
    <path
       style="fill:none;stroke:#000000;stroke-width:0.25;stroke-linecap:butt;stroke-linejoin:miter;stroke-miterlimit:4;stroke-opacity:1;stroke-dasharray:none"
       d="m 59,1012.3622 20,-19 -30,15"
       id="path2987"
       inkscape:connector-curvature="0"
       sodipodi:nodetypes="ccc" />
    <path
       style="fill:none;stroke:#000000;stroke-width:0.25;stroke-linecap:butt;stroke-linejoin:miter;stroke-miterlimit:4;stroke-opacity:1;stroke-dasharray:none"
       d="m 59,1019.3622 20,-26 -17,20"
       id="path2991"
       inkscape:connector-curvature="0"
       sodipodi:nodetypes="ccc" />
    <path
       style="fill:none;stroke:#000000;stroke-width:0.25;stroke-linecap:butt;stroke-linejoin:miter;stroke-miterlimit:4;stroke-opacity:1;stroke-dasharray:none"
       d="m 79,993.3622 -5,25"
       id="path2993"
       inkscape:connector-curvature="0"
       sodipodi:nodetypes="cc" />
    <path
       style="fill:none;stroke:#000000;stroke-width:0.25;stroke-linecap:butt;stroke-linejoin:miter;stroke-miterlimit:4;stroke-opacity:1;stroke-dasharray:none"
       d="m 49,1008.3622 25,10"
       id="path2995"
       inkscape:connector-curvature="0"
       sodipodi:nodetypes="cc" />
    <path
       style="fill:none;stroke:#000000;stroke-width:0.25;stroke-linecap:butt;stroke-linejoin:miter;stroke-miterlimit:4;stroke-opacity:1;stroke-dasharray:none"
       d="m 62,1013.3622 -3,6 0,-7"
       id="path3765"
       inkscape:connector-curvature="0"
       sodipodi:nodetypes="ccc" />
  </g>
  <g
     inkscape:groupmode="layer"
     id="layer2"
     inkscape:label="image"
     style="display:inline"
     sodipodi:insensitive="true">
    <path
       style="fill:#95a5a6;fill-opacity:1;stroke:none"
       d="m 59,27 6,-8 -6,1 z"
       id="path3772"
       inkscape:connector-curvature="0" />
    <path
       style="fill:#ecf0f1;fill-opacity:1;stroke:none"
       d="M 79,1 49,16 59,20 79,1 62,21 74,26 z"
       id="path3768"
       inkscape:connector-curvature="0" />
    <path
       style="fill:#bdc3c7;fill-opacity:1;stroke:none"
       d="m 59,20 0,7 3,-6 17,-20 z"
       id="path3770"
       inkscape:connector-curvature="0" />
  </g>
  <g
     inkscape:groupmode="layer"
     id="layer3"
     inkscape:label="stamp"
     style="display:inline"
     sodipodi:insensitive="true">
    <path
       inkscape:connector-curvature="0"
       style="fill:#bdc3c7;fill-opacity:1;stroke:none"
       d="m -9.187502,36.728766 c -0.06925,0 -0.125,0.05575 -0.125,0.125 0.06904,0 0.125,0.05596 0.125,0.125 0,0.06904 -0.05596,0.125 -0.125,0.125 l 0,0.125 c 0.06904,0 0.125,0.05596 0.125,0.125 0,0.06904 -0.05596,0.125 -0.125,0.125 l 0,0.125 c 0.06904,0 0.125,0.05596 0.125,0.125 0,0.06904 -0.05596,0.125 -0.125,0.125 l 0,0.125 c 0.06904,0 0.125,0.05596 0.125,0.125 0,0.06904 -0.05596,0.125 -0.125,0.125 l 0,0.125 c 0.06904,0 0.125,0.05596 0.125,0.125 0,0.06904 -0.05596,0.125 -0.125,0.125 l 0,0.125 c 0.06904,0 0.125,0.05596 0.125,0.125 0,0.06904 -0.05596,0.125 -0.125,0.125 l 0,0.125 c 0.06904,0 0.125,0.05596 0.125,0.125 0,0.06904 -0.05596,0.125 -0.125,0.125 l 0,0.125 c 0.06904,0 0.125,0.05596 0.125,0.125 0,0.06904 -0.05596,0.125 -0.125,0.125 l 0,0.125 c 0.06904,0 0.125,0.05596 0.125,0.125 0,0.06904 -0.05596,0.125 -0.125,0.125 l 0,0.125 c 0.06904,0 0.125,0.05596 0.125,0.125 0,0.06904 -0.05596,0.125 -0.125,0.125 l 0,0.125 c 0.06904,0 0.125,0.05596 0.125,0.125 0,0.06904 -0.05596,0.125 -0.125,0.125 l 0,0.125 c 0.06904,0 0.125,0.05596 0.125,0.125 0,0.06904 -0.05596,0.125 -0.125,0.125 l 0,0.125 c 0.06904,0 0.125,0.05596 0.125,0.125 0,0.06904 -0.05596,0.125 -0.125,0.125 0,0.06925 0.05575,0.125 0.125,0.125 0,-0.06904 0.05596,-0.125 0.125,-0.125 0.06904,0 0.125,0.05596 0.125,0.125 l 0.125,0 c 0,-0.06904 0.05596,-0.125 0.125,-0.125 0.06904,0 0.125,0.05596 0.125,0.125 l 0.125,0 c 0,-0.06904 0.05596,-0.125 0.125,-0.125 0.06904,0 0.125,0.05596 0.125,0.125 l 0.125,0 c 0,-0.06904 0.05596,-0.125 0.125,-0.125 0.06904,0 0.125,0.05596 0.125,0.125 l 0.125,0 c 0,-0.06904 0.05596,-0.125 0.125,-0.125 0.06904,0 0.125,0.05596 0.125,0.125 l 0.125,0 c 0,-0.06904 0.05596,-0.125 0.125,-0.125 0.06904,0 0.125,0.05596 0.125,0.125 l 0.125,0 c 0,-0.06904 0.05596,-0.125 0.125,-0.125 0.06904,0 0.125,0.05596 0.125,0.125 l 0.125,0 c 0,-0.06904 0.05596,-0.125 0.125,-0.125 0.06904,0 0.125,0.05596 0.125,0.125 l 0.125,0 c 0,-0.06904 0.05596,-0.125 0.125,-0.125 0.06904,0 0.125,0.05596 0.125,0.125 l 0.125,0 c 0,-0.06904 0.05596,-0.125 0.125,-0.125 0.06904,0 0.125,0.05596 0.125,0.125 l 0.125,0 c 0,-0.06904 0.05596,-0.125 0.125,-0.125 0.06904,0 0.125,0.05596 0.125,0.125 0.06925,0 0.125,-0.05575 0.125,-0.125 -0.06904,0 -0.125,-0.05596 -0.125,-0.125 0,-0.06904 0.05596,-0.125 0.125,-0.125 l 0,-0.125 c -0.06904,0 -0.125,-0.05596 -0.125,-0.125 0,-0.06904 0.05596,-0.125 0.125,-0.125 l 0,-0.125 c -0.06904,0 -0.125,-0.05596 -0.125,-0.125 0,-0.06904 0.05596,-0.125 0.125,-0.125 l 0,-0.125 c -0.06904,0 -0.125,-0.05596 -0.125,-0.125 0,-0.06904 0.05596,-0.125 0.125,-0.125 l 0,-0.125 c -0.06904,0 -0.125,-0.05596 -0.125,-0.125 0,-0.06904 0.05596,-0.125 0.125,-0.125 l 0,-0.125 c -0.06904,0 -0.125,-0.05596 -0.125,-0.125 0,-0.06904 0.05596,-0.125 0.125,-0.125 l 0,-0.125 c -0.06904,0 -0.125,-0.05596 -0.125,-0.125 0,-0.06904 0.05596,-0.125 0.125,-0.125 l 0,-0.125 c -0.06904,0 -0.125,-0.05596 -0.125,-0.125 0,-0.06904 0.05596,-0.125 0.125,-0.125 l 0,-0.125 c -0.06904,0 -0.125,-0.05596 -0.125,-0.125 0,-0.06904 0.05596,-0.125 0.125,-0.125 l 0,-0.125 c -0.06904,0 -0.125,-0.05596 -0.125,-0.125 0,-0.06904 0.05596,-0.125 0.125,-0.125 l 0,-0.125 c -0.06904,0 -0.125,-0.05596 -0.125,-0.125 0,-0.06904 0.05596,-0.125 0.125,-0.125 l 0,-0.125 c -0.06904,0 -0.125,-0.05596 -0.125,-0.125 0,-0.06904 0.05596,-0.125 0.125,-0.125 l 0,-0.125 c -0.06904,0 -0.125,-0.05596 -0.125,-0.125 0,-0.06904 0.05596,-0.125 0.125,-0.125 0,-0.06925 -0.05575,-0.125 -0.125,-0.125 0,0.06904 -0.05596,0.125 -0.125,0.125 -0.06904,0 -0.125,-0.05596 -0.125,-0.125 l -0.125,0 c 0,0.06904 -0.05596,0.125 -0.125,0.125 -0.06904,0 -0.125,-0.05596 -0.125,-0.125 l -0.125,0 c 0,0.06904 -0.05596,0.125 -0.125,0.125 -0.06904,0 -0.125,-0.05596 -0.125,-0.125 l -0.125,0 c 0,0.06904 -0.05596,0.125 -0.125,0.125 -0.06904,0 -0.125,-0.05596 -0.125,-0.125 l -0.125,0 c 0,0.06904 -0.05596,0.125 -0.125,0.125 -0.06904,0 -0.125,-0.05596 -0.125,-0.125 l -0.125,0 c 0,0.06904 -0.05596,0.125 -0.125,0.125 -0.06904,0 -0.125,-0.05596 -0.125,-0.125 l -0.125,0 c 0,0.06904 -0.05596,0.125 -0.125,0.125 -0.06904,0 -0.125,-0.05596 -0.125,-0.125 l -0.125,0 c 0,0.06904 -0.05596,0.125 -0.125,0.125 -0.06904,0 -0.125,-0.05596 -0.125,-0.125 l -0.125,0 c 0,0.06904 -0.05596,0.125 -0.125,0.125 -0.06904,0 -0.125,-0.05596 -0.125,-0.125 l -0.125,0 c 0,0.06904 -0.05596,0.125 -0.125,0.125 -0.06904,0 -0.125,-0.05596 -0.125,-0.125 l -0.125,0 c 0,0.06904 -0.05596,0.125 -0.125,0.125 -0.06904,0 -0.125,-0.05596 -0.125,-0.125 z"
       id="rect4098" />
    <rect
       style="fill:#c0392b;fill-opacity:1;stroke:none"
       id="rect3796"
       width="3.75"
       height="4.5"
       x="-9.0625019"
       y="36.978764" />
    <path
       style="fill:none;stroke:#000000;stroke-width:0.125;stroke-linecap:round;stroke-linejoin:miter;stroke-miterlimit:4;stroke-opacity:1;stroke-dasharray:none"
       d="m -12.5625,39.978766 c 2.5,-1.875 3.75,1.875 6.25,0"
       id="path4754"
       inkscape:connector-curvature="0"
       sodipodi:nodetypes="cc" />
    <path
       style="fill:none;stroke:#000000;stroke-width:0.125;stroke-linecap:round;stroke-linejoin:miter;stroke-miterlimit:4;stroke-opacity:1;stroke-dasharray:none"
       d="m -12.5625,39.353766 c 2.5,-1.875 3.75,1.875 6.25,0"
       id="path4754-7"
       inkscape:connector-curvature="0"
       sodipodi:nodetypes="cc" />
    <path
       style="fill:none;stroke:#000000;stroke-width:0.125;stroke-linecap:round;stroke-linejoin:miter;stroke-miterlimit:4;stroke-opacity:1;stroke-dasharray:none"
       d="m -12.5625,38.728766 c 2.5,-1.875 3.75,1.875 6.25,0"
       id="path4754-4"
       inkscape:connector-curvature="0"
       sodipodi:nodetypes="cc" />
    <path
       style="fill:none;stroke:#000000;stroke-width:0.125;stroke-linecap:round;stroke-linejoin:miter;stroke-miterlimit:4;stroke-opacity:1;stroke-dasharray:none"
       d="m -12.5625,40.603766 c 2.5,-1.875 3.75,1.875 6.25,0"
       id="path4754-1"
       inkscape:connector-curvature="0"
       sodipodi:nodetypes="cc" />
    <path
       sodipodi:type="arc"
       style="fill:none;stroke:#000000;stroke-width:0.125;stroke-linecap:round;stroke-linejoin:round;stroke-miterlimit:4;stroke-opacity:1;stroke-dasharray:none"
       id="path4604-1-8"
       sodipodi:cx="28.4375"
       sodipodi:cy="45.9375"
       sodipodi:rx="2.1875"
       sodipodi:ry="2.1875"
       d="m 30.625,45.9375 a 2.1875,2.1875 0 1 1 -4.375,0 2.1875,2.1875 0 1 1 4.375,0 z"
       transform="translate(-37.250002,-6.2087374)" />
    <path
       sodipodi:type="arc"
       style="fill:none;stroke:#000000;stroke-width:0.08928578;stroke-miterlimit:4;stroke-opacity:1;stroke-dasharray:none"
       id="path4606-6-2"
       sodipodi:cx="28.4375"
       sodipodi:cy="45.9375"
       sodipodi:rx="0.9375"
       sodipodi:ry="0.9375"
       d="m 29.375,45.9375 a 0.9375,0.9375 0 1 1 -1.875,0 0.9375,0.9375 0 1 1 1.875,0 z"
       transform="matrix(1.3999989,0,0,1.3999989,-48.62497,-24.583684)" />
    <g
       id="g3042"
       transform="matrix(0.99799293,-0.03454256,-0.06849448,0.93210742,51.831249,-27.599579)">
      <path
         id="rect4098-1"
         d="m 22.906704,50.195484 c -0.04316,-0.02111 -0.105103,0.0011 -0.138894,0.04972 0.04303,0.02105 0.05059,0.07742 0.0169,0.125936 -0.03369,0.04851 -0.09587,0.07077 -0.138894,0.04972 l -0.061,0.08783 c 0.04303,0.02105 0.05059,0.07743 0.01691,0.125937 -0.03369,0.04851 -0.09587,0.07077 -0.138894,0.04972 l -0.06099,0.08783 c 0.04303,0.02105 0.05059,0.07743 0.0169,0.125937 -0.03369,0.04851 -0.09587,0.07077 -0.138894,0.04972 l -0.06099,0.08783 c 0.04303,0.02105 0.05059,0.07743 0.0169,0.125937 -0.03369,0.04851 -0.09587,0.07077 -0.138894,0.04972 l -0.06099,0.08783 c 0.04303,0.02105 0.05059,0.07743 0.0169,0.125937 -0.03369,0.04851 -0.09587,0.07077 -0.138893,0.04972 l -0.06099,0.08783 c 0.04303,0.02105 0.05059,0.07743 0.0169,0.125936 -0.03369,0.04851 -0.09587,0.07077 -0.138894,0.04972 l -0.06099,0.08783 c 0.04303,0.02105 0.05059,0.07743 0.0169,0.125936 -0.03369,0.04851 -0.09587,0.07077 -0.138894,0.04972 l -0.06099,0.08783 c 0.04303,0.02105 0.05059,0.07743 0.0169,0.125936 -0.03369,0.04851 -0.09587,0.07077 -0.138894,0.04972 l -0.06099,0.08783 c 0.04303,0.02105 0.05059,0.07742 0.0169,0.125936 -0.03369,0.04851 -0.09587,0.07077 -0.138894,0.04972 l -0.06099,0.08783 c 0.04303,0.02105 0.05059,0.07743 0.0169,0.125937 -0.03369,0.04851 -0.09587,0.07077 -0.138893,0.04972 l -0.061,0.08783 c 0.04303,0.02105 0.05059,0.07743 0.0169,0.125937 -0.03369,0.04851 -0.09587,0.07077 -0.138894,0.04972 l -0.06099,0.08783 c 0.04303,0.02105 0.05059,0.07743 0.0169,0.125937 -0.03369,0.04851 -0.09587,0.07077 -0.138894,0.04972 l -0.061,0.08783 c 0.04303,0.02105 0.05059,0.07743 0.0169,0.125937 -0.03369,0.04851 -0.09587,0.07077 -0.138893,0.04972 -0.03379,0.04866 -0.02625,0.104825 0.0169,0.125936 0.03369,-0.04851 0.09587,-0.07077 0.138893,-0.04972 0.04303,0.02105 0.05059,0.07743 0.0169,0.125937 l 0.0779,0.03811 c 0.03369,-0.04851 0.09587,-0.07077 0.138894,-0.04972 0.04303,0.02105 0.05059,0.07743 0.0169,0.125936 l 0.0779,0.03811 c 0.03369,-0.04851 0.09587,-0.07077 0.138894,-0.04972 0.04303,0.02105 0.05059,0.07743 0.0169,0.125936 l 0.0779,0.03811 c 0.03369,-0.04851 0.09587,-0.07077 0.138894,-0.04972 0.04303,0.02105 0.05059,0.07743 0.0169,0.125937 l 0.0779,0.03811 c 0.03369,-0.04851 0.09587,-0.07077 0.138894,-0.04972 0.04303,0.02105 0.05059,0.07743 0.0169,0.125937 l 0.0779,0.03811 c 0.03369,-0.04851 0.09587,-0.07077 0.138893,-0.04972 0.04303,0.02105 0.05059,0.07743 0.0169,0.125936 l 0.0779,0.03811 c 0.03369,-0.04851 0.09587,-0.07077 0.138894,-0.04972 0.04303,0.02105 0.05059,0.07743 0.0169,0.125936 l 0.0779,0.03811 c 0.03369,-0.04851 0.09587,-0.07077 0.138894,-0.04972 0.04303,0.02105 0.05059,0.07743 0.0169,0.125937 l 0.0779,0.03811 c 0.03369,-0.04851 0.09587,-0.07077 0.138893,-0.04972 0.04303,0.02105 0.05059,0.07743 0.0169,0.125937 l 0.0779,0.03811 c 0.03369,-0.04851 0.09587,-0.07077 0.138894,-0.04972 0.04303,0.02105 0.05059,0.07743 0.0169,0.125937 l 0.0779,0.03811 c 0.03369,-0.04851 0.09587,-0.07077 0.138894,-0.04972 0.04303,0.02105 0.05059,0.07743 0.0169,0.125936 0.04316,0.02111 0.105102,-0.0011 0.138893,-0.04972 -0.04303,-0.02105 -0.05059,-0.07743 -0.0169,-0.125936 0.03369,-0.04851 0.09587,-0.07077 0.138894,-0.04972 l 0.06099,-0.08783 c -0.04303,-0.02105 -0.05059,-0.07743 -0.0169,-0.125936 0.03369,-0.04851 0.09587,-0.07077 0.138893,-0.04972 l 0.061,-0.08783 c -0.04303,-0.02105 -0.05059,-0.07743 -0.0169,-0.125936 0.03369,-0.04851 0.09587,-0.07077 0.138894,-0.04972 l 0.06099,-0.08783 c -0.04303,-0.02105 -0.05059,-0.07743 -0.01691,-0.125937 0.03369,-0.04851 0.09587,-0.07077 0.138894,-0.04972 l 0.061,-0.08783 c -0.04303,-0.02105 -0.05059,-0.07743 -0.0169,-0.125937 0.03369,-0.04851 0.09587,-0.07077 0.138894,-0.04972 l 0.06099,-0.08783 c -0.04303,-0.02105 -0.05059,-0.07743 -0.0169,-0.125937 0.03369,-0.04851 0.09587,-0.07077 0.138894,-0.04972 l 0.061,-0.08783 c -0.04303,-0.02105 -0.05059,-0.07743 -0.0169,-0.125937 0.03369,-0.04851 0.09587,-0.07077 0.138893,-0.04972 l 0.061,-0.08783 c -0.04303,-0.02105 -0.05059,-0.07743 -0.0169,-0.125936 0.03369,-0.04851 0.09587,-0.07077 0.138894,-0.04972 l 0.061,-0.08783 c -0.04303,-0.02105 -0.05059,-0.07743 -0.01691,-0.125936 0.03369,-0.04851 0.09587,-0.07077 0.138894,-0.04972 l 0.061,-0.08783 c -0.04303,-0.02105 -0.05059,-0.07743 -0.0169,-0.125936 0.03369,-0.04851 0.09587,-0.07077 0.138893,-0.04972 l 0.06099,-0.08783 c -0.04303,-0.02105 -0.05059,-0.07743 -0.0169,-0.125936 0.03369,-0.04851 0.09587,-0.07077 0.138894,-0.04972 l 0.061,-0.08783 c -0.04303,-0.02105 -0.05059,-0.07743 -0.0169,-0.125937 0.03369,-0.04851 0.09587,-0.07077 0.138893,-0.04972 l 0.06099,-0.08783 c -0.04303,-0.02105 -0.05059,-0.07743 -0.0169,-0.125937 0.03369,-0.04851 0.09587,-0.07077 0.138894,-0.04972 0.03379,-0.04866 0.02625,-0.104825 -0.0169,-0.125936 -0.03369,0.04851 -0.09587,0.07077 -0.138894,0.04972 -0.04303,-0.02105 -0.05059,-0.07743 -0.0169,-0.125937 l -0.0779,-0.03811 c -0.03369,0.04851 -0.09587,0.07077 -0.138894,0.04972 -0.04303,-0.02105 -0.05059,-0.07743 -0.0169,-0.125937 l -0.0779,-0.03811 c -0.03369,0.04851 -0.09587,0.07077 -0.138893,0.04972 -0.04303,-0.02105 -0.05059,-0.07743 -0.0169,-0.125936 l -0.0779,-0.03811 c -0.03369,0.04851 -0.09587,0.07077 -0.138894,0.04972 -0.04303,-0.02105 -0.05059,-0.07743 -0.0169,-0.125936 l -0.0779,-0.03811 c -0.03369,0.04851 -0.09587,0.07077 -0.138894,0.04972 -0.04302,-0.02105 -0.05059,-0.07743 -0.0169,-0.125937 l -0.0779,-0.03811 c -0.03369,0.04851 -0.09587,0.07077 -0.138893,0.04972 -0.04303,-0.02105 -0.05059,-0.07743 -0.0169,-0.125937 l -0.0779,-0.03811 c -0.03369,0.04851 -0.09587,0.07077 -0.138894,0.04972 -0.04303,-0.02105 -0.05059,-0.07743 -0.0169,-0.125937 l -0.0779,-0.03811 c -0.03369,0.04851 -0.09587,0.07077 -0.138893,0.04972 -0.04303,-0.02105 -0.05059,-0.07743 -0.0169,-0.125936 l -0.0779,-0.03811 c -0.03369,0.04851 -0.09587,0.07077 -0.138894,0.04972 -0.04303,-0.02105 -0.05059,-0.07743 -0.0169,-0.125937 l -0.0779,-0.03811 c -0.03369,0.04851 -0.09587,0.07077 -0.138894,0.04972 -0.04303,-0.02105 -0.05059,-0.07743 -0.0169,-0.125937 l -0.0779,-0.03811 c -0.03369,0.04851 -0.09587,0.07077 -0.138893,0.04972 -0.04303,-0.02105 -0.05059,-0.07743 -0.0169,-0.125937 z"
         style="fill:#bdc3c7;fill-opacity:1;stroke:none;display:inline"
         inkscape:connector-curvature="0" />
      <rect
         transform="matrix(0.89827806,0.43942749,-0.57040991,0.82136018,0,0)"
         y="35.646297"
         x="48.087132"
         height="3.8496845"
         width="2.6017079"
         id="rect3796-7"
         style="fill:#c0392b;fill-opacity:1;stroke:none;display:inline" />
      <path
         sodipodi:nodetypes="cc"
         inkscape:connector-curvature="0"
         id="path4754-40"
         d="m 19.217427,51.4502 c 2.472995,-0.555316 1.4221,2.460753 3.895095,1.905437"
         style="opacity:0.8;fill:none;stroke:#2c3e50;stroke-width:0.09574372;stroke-linecap:round;stroke-linejoin:miter;stroke-miterlimit:4;stroke-opacity:1;stroke-dasharray:none;display:inline" />
      <path
         sodipodi:nodetypes="cc"
         inkscape:connector-curvature="0"
         id="path4754-7-9"
         d="m 19.522413,51.011036 c 2.472995,-0.555316 1.4221,2.460753 3.895095,1.905437"
         style="opacity:0.8;fill:none;stroke:#2c3e50;stroke-width:0.09574372;stroke-linecap:round;stroke-linejoin:miter;stroke-miterlimit:4;stroke-opacity:1;stroke-dasharray:none;display:inline" />
      <path
         sodipodi:nodetypes="cc"
         inkscape:connector-curvature="0"
         id="path4754-4-4"
         d="m 19.827398,50.571873 c 2.472996,-0.555316 1.422101,2.460752 3.895095,1.905437"
         style="opacity:0.8;fill:none;stroke:#2c3e50;stroke-width:0.09574372;stroke-linecap:round;stroke-linejoin:miter;stroke-miterlimit:4;stroke-opacity:1;stroke-dasharray:none;display:inline" />
      <path
         sodipodi:nodetypes="cc"
         inkscape:connector-curvature="0"
         id="path4754-1-8"
         d="m 18.912441,51.889363 c 2.472995,-0.555316 1.4221,2.460753 3.895095,1.905436"
         style="opacity:0.8;fill:none;stroke:#2c3e50;stroke-width:0.09574372;stroke-linecap:round;stroke-linejoin:miter;stroke-miterlimit:4;stroke-opacity:1;stroke-dasharray:none;display:inline" />
      <path
         transform="matrix(0.62321524,0.30486986,-0.48797736,0.70266166,26.370255,11.469537)"
         d="m 30.625,45.9375 a 2.1875,2.1875 0 1 1 -4.375,0 2.1875,2.1875 0 1 1 4.375,0 z"
         sodipodi:ry="2.1875"
         sodipodi:rx="2.1875"
         sodipodi:cy="45.9375"
         sodipodi:cx="28.4375"
         id="path4604-1-8-8"
         style="opacity:0.8;fill:none;stroke:#2c3e50;stroke-width:0.125;stroke-linecap:round;stroke-linejoin:round;stroke-miterlimit:4;stroke-opacity:1;stroke-dasharray:none;display:inline"
         sodipodi:type="arc" />
      <path
         transform="matrix(0.87250062,0.42681746,-0.68316775,0.98372552,28.24776,-4.909719)"
         d="m 29.375,45.9375 a 0.9375,0.9375 0 1 1 -1.875,0 0.9375,0.9375 0 1 1 1.875,0 z"
         sodipodi:ry="0.9375"
         sodipodi:rx="0.9375"
         sodipodi:cy="45.9375"
         sodipodi:cx="28.4375"
         id="path4606-6-2-2"
         style="opacity:0.8;fill:none;stroke:#2c3e50;stroke-width:0.08928578;stroke-miterlimit:4;stroke-opacity:1;stroke-dasharray:none;display:inline"
         sodipodi:type="arc" />
    </g>
  </g>
  <g
     inkscape:groupmode="layer"
     id="layer5"
     inkscape:label="parallele"
     style="display:none"
     sodipodi:insensitive="true">
    <path
       inkscape:connector-curvature="0"
       inkscape:original-d="M 79,1 62.125,21"
       inkscape:path-effect="#path-effect3982"
       id="path3980"
       d="M 79,1 62.125,21"
       style="fill:none;stroke:#000000;stroke-width:0.1;stroke-linecap:butt;stroke-linejoin:miter;stroke-miterlimit:4;stroke-opacity:1;stroke-dasharray:none" />
    <path
       inkscape:connector-curvature="0"
       inkscape:original-d="m 80.244963,7.956916 -16.875,20"
       inkscape:path-effect="#path-effect3982-1"
       id="path3980-4"
       d="m 80.244963,7.956916 -16.875,20"
       style="fill:none;stroke:#000000;stroke-width:0.1;stroke-linecap:butt;stroke-linejoin:miter;stroke-miterlimit:4;stroke-opacity:1;stroke-dasharray:none" />
    <path
       inkscape:connector-curvature="0"
       inkscape:original-d="m 82.604473,9.023668 -16.875,20"
       inkscape:path-effect="#path-effect3982-2"
       id="path3980-3"
       d="m 82.604473,9.023668 -16.875,20"
       style="fill:none;stroke:#000000;stroke-width:0.1;stroke-linecap:butt;stroke-linejoin:miter;stroke-miterlimit:4;stroke-opacity:1;stroke-dasharray:none" />
    <path
       inkscape:connector-curvature="0"
       inkscape:original-d="M 62.125,21 74,26"
       inkscape:path-effect="#path-effect4016"
       id="path4014"
       d="M 62.125,21 74,26"
       style="fill:none;stroke:#000000;stroke-width:0.1;stroke-linecap:butt;stroke-linejoin:miter;stroke-miterlimit:4;stroke-opacity:1;stroke-dasharray:none" />
    <path
       inkscape:connector-curvature="0"
       inkscape:original-d="m 65.3125,20.0625 11.875,5"
       inkscape:path-effect="#path-effect4016-2"
       id="path4014-2"
       d="m 65.3125,20.0625 11.875,5"
       style="fill:none;stroke:#000000;stroke-width:0.1;stroke-linecap:butt;stroke-linejoin:miter;stroke-miterlimit:4;stroke-opacity:1;stroke-dasharray:none" />
    <path
       inkscape:connector-curvature="0"
       inkscape:original-d="m 66.687499,16.6875 11.875001,5"
       inkscape:path-effect="#path-effect4016-1"
       id="path4014-6"
       d="m 66.687499,16.6875 11.875001,5"
       style="fill:none;stroke:#000000;stroke-width:0.1;stroke-linecap:butt;stroke-linejoin:miter;stroke-miterlimit:4;stroke-opacity:1;stroke-dasharray:none" />
    <path
       style="fill:none;stroke:#000000;stroke-width:0.1;stroke-linecap:butt;stroke-linejoin:miter;stroke-miterlimit:4;stroke-opacity:1;stroke-dasharray:none"
       d="m 61.9375,23.0625 -20,26"
       id="path3825"
       inkscape:connector-curvature="0" />
  </g>
  <g
     inkscape:groupmode="layer"
     id="layer4"
     inkscape:label="form">
    <path
       style="fill:none;stroke:#ffffff;stroke-width:0.5;stroke-linecap:butt;stroke-linejoin:round;stroke-miterlimit:4;stroke-opacity:1;stroke-dasharray:2, 2;stroke-dashoffset:0"
       d="M 58.226602,28.508233 C 44.226602,46.508233 25,53 0,43"
       id="path3055"
       inkscape:connector-curvature="0"
       sodipodi:nodetypes="cc"
       inkscape:export-xdpi="843"
       inkscape:export-ydpi="843" />
  </g>
</svg>
