<?xml version="1.0" encoding="UTF-8" standalone="no"?>
<!-- Created with Inkscape (http://www.inkscape.org/) -->

<svg
   xmlns:dc="http://purl.org/dc/elements/1.1/"
   xmlns:cc="http://creativecommons.org/ns#"
   xmlns:rdf="http://www.w3.org/1999/02/22-rdf-syntax-ns#"
   xmlns:svg="http://www.w3.org/2000/svg"
   xmlns="http://www.w3.org/2000/svg"
   xmlns:sodipodi="http://sodipodi.sourceforge.net/DTD/sodipodi-0.dtd"
   xmlns:inkscape="http://www.inkscape.org/namespaces/inkscape"
   width="600"
   height="420"
   id="svg3997"
   version="1.1"
   inkscape:version="0.48.4 r9939"
   sodipodi:docname="screen site 2.svg"
   inkscape:export-filename="/home/niouby/informatique/lakka-image/tv.png"
   inkscape:export-xdpi="180"
   inkscape:export-ydpi="180">
  <defs
     id="defs3999" />
  <sodipodi:namedview
     id="base"
     pagecolor="#ffffff"
     bordercolor="#666666"
     borderopacity="1.0"
     inkscape:pageopacity="0.0"
     inkscape:pageshadow="2"
     inkscape:zoom="2.0000001"
     inkscape:cx="362.4042"
     inkscape:cy="225.08428"
     inkscape:document-units="px"
     inkscape:current-layer="layer1"
     showgrid="true"
     inkscape:snap-bbox="true"
     inkscape:snap-global="true"
     inkscape:window-width="1920"
     inkscape:window-height="1014"
     inkscape:window-x="0"
     inkscape:window-y="27"
     inkscape:window-maximized="1">
    <inkscape:grid
       type="xygrid"
       id="grid4024"
       empspacing="5"
       visible="true"
       enabled="true"
       snapvisiblegridlinesonly="true" />
  </sodipodi:namedview>
  <metadata
     id="metadata4002">
    <rdf:RDF>
      <cc:Work
         rdf:about="">
        <dc:format>image/svg+xml</dc:format>
        <dc:type
           rdf:resource="http://purl.org/dc/dcmitype/StillImage" />
        <dc:title></dc:title>
      </cc:Work>
    </rdf:RDF>
  </metadata>
  <g
     inkscape:label="Calque 1"
     inkscape:groupmode="layer"
     id="layer1"
     transform="translate(0,-632.36218)">
    <path
       style="fill:#2c3e50;fill-opacity:1;stroke:none;display:inline"
       d="m 425,1027.3622 -75,0 c -20,0 -20,-20 -20,-30.00002 -15,0 -45,0 -60,0 0,9.67742 0,30.00002 -20,30.00002 l -75,0 c -10,0 -30,0 -30,10 0,9.6774 0,5.3226 0,15 38.70968,0 271.29032,0 310,0 0,-4.83 0,-10.3549 0,-15 0,-10 -20,-10 -30,-10 z"
       id="path3862"
       inkscape:connector-curvature="0"
       sodipodi:nodetypes="ccccccccccc" />
    <rect
       style="fill:#34495e;fill-opacity:1;stroke:none"
       id="rect3010"
       width="584"
       height="370"
       x="8"
       y="632.36218"
       ry="9.9999971"
       rx="10" />
    <rect
       style="fill:#000000;fill-opacity:1;stroke:none"
       id="rect3012"
       width="544"
       height="320"
       x="28"
       y="652.36218"
       ry="0" />
    <path
       sodipodi:type="arc"
       style="fill:#2c3e50;fill-opacity:1;stroke:none;display:inline"
       id="path3874"
       sodipodi:cx="57"
       sodipodi:cy="47"
       sodipodi:rx="1"
       sodipodi:ry="1"
       d="m 58,47 c 0,0.552285 -0.447715,1 -1,1 -0.552285,0 -1,-0.447715 -1,-1 0,-0.552285 0.447715,-1 1,-1 0.552285,0 1,0.447715 1,1 z"
       transform="matrix(10.000002,0,0,10.000002,-10.000112,517.36209)" />
    <path
       sodipodi:type="arc"
       style="fill:#2c3e50;fill-opacity:1;stroke:none;display:inline"
       id="path3872"
       sodipodi:cx="59.5"
       sodipodi:cy="46.5"
       sodipodi:rx="0.5"
       sodipodi:ry="0.5"
       d="M 60,46.5 C 60,46.776142 59.776142,47 59.5,47 59.223858,47 59,46.776142 59,46.5 59,46.223858 59.223858,46 59.5,46 c 0.276142,0 0.5,0.223858 0.5,0.5 z"
       transform="matrix(10.322578,0,0,10.322578,-79.03211,507.201)" />
    <path
       sodipodi:type="arc"
       style="fill:#2c3e50;fill-opacity:1;stroke:none;display:inline"
       id="path3872-4"
       sodipodi:cx="59.5"
       sodipodi:cy="46.5"
       sodipodi:rx="0.5"
       sodipodi:ry="0.5"
       d="M 60,46.5 C 60,46.776142 59.776142,47 59.5,47 59.223858,47 59,46.776142 59,46.5 59,46.223858 59.223858,46 59.5,46 c 0.276142,0 0.5,0.223858 0.5,0.5 z"
       transform="matrix(10.322578,0,0,10.322578,-99.03211,507.201)" />
    <path
       sodipodi:type="arc"
       style="fill:#2c3e50;fill-opacity:1;stroke:none;display:inline"
       id="path3872-1"
       sodipodi:cx="59.5"
       sodipodi:cy="46.5"
       sodipodi:rx="0.5"
       sodipodi:ry="0.5"
       d="M 60,46.5 C 60,46.776142 59.776142,47 59.5,47 59.223858,47 59,46.776142 59,46.5 59,46.223858 59.223858,46 59.5,46 c 0.276142,0 0.5,0.223858 0.5,0.5 z"
       transform="matrix(10.322578,0,0,10.322578,-119.03211,507.201)" />
    <path
       sodipodi:type="arc"
       style="fill:#2c3e50;fill-opacity:1;stroke:none;display:inline"
       id="path3872-18"
       sodipodi:cx="59.5"
       sodipodi:cy="46.5"
       sodipodi:rx="0.5"
       sodipodi:ry="0.5"
       d="M 60,46.5 C 60,46.776142 59.776142,47 59.5,47 59.223858,47 59,46.776142 59,46.5 59,46.223858 59.223858,46 59.5,46 c 0.276142,0 0.5,0.223858 0.5,0.5 z"
       transform="matrix(10.322578,0,0,10.322578,-139.03211,507.201)" />
  </g>
</svg>
